<?xml version="1.0" encoding="UTF-8" standalone="no"?>
<svg
   xmlns:dc="http://purl.org/dc/elements/1.1/"
   xmlns:cc="http://creativecommons.org/ns#"
   xmlns:rdf="http://www.w3.org/1999/02/22-rdf-syntax-ns#"
   xmlns:svg="http://www.w3.org/2000/svg"
   xmlns="http://www.w3.org/2000/svg"
   xmlns:sodipodi="http://sodipodi.sourceforge.net/DTD/sodipodi-0.dtd"
   xmlns:inkscape="http://www.inkscape.org/namespaces/inkscape"
   width="16"
   height="16"
   fill="currentColor"
   viewBox="0 0 16 16"
   version="1.1"
   id="svg22"
   inkscape:version="1.0.1 (3bc2e813f5, 2020-09-07)">
  <metadata
     id="metadata28">
    <rdf:RDF>
      <cc:Work
         rdf:about="">
        <dc:format>image/svg+xml</dc:format>
        <dc:type
           rdf:resource="http://purl.org/dc/dcmitype/StillImage" />
        <dc:title></dc:title>
      </cc:Work>
    </rdf:RDF>
  </metadata>
  <defs
     id="defs26" />
  <sodipodi:namedview
     pagecolor="#ffffff"
     bordercolor="#666666"
     borderopacity="1"
     objecttolerance="10"
     gridtolerance="10"
     guidetolerance="10"
     inkscape:pageopacity="0"
     inkscape:pageshadow="2"
     inkscape:window-width="1920"
     inkscape:window-height="1017"
     id="namedview24"
     showgrid="false"
     inkscape:zoom="37.565048"
     inkscape:cx="6.6404973"
     inkscape:cy="9.5921016"
     inkscape:window-x="1912"
     inkscape:window-y="-8"
     inkscape:window-maximized="1"
     inkscape:current-layer="svg22" />
  <rect
     style="fill:#535d6c;fill-opacity:1;stroke-width:3.18426"
     id="rect861"
     width="16"
     height="16"
     x="0"
     y="0" />
  <path
     fill-rule="evenodd"
     d="m 8.0000004,3.0451152 c 3.5547796,-3.6541025 12.4425306,2.7401764 0,10.9623078 -12.4425315,-8.2213304 -3.5547801,-14.6164103 0,-10.9623078 z"
     id="path20"
     style="stroke-width:0.800987;fill:#ff0000" />
  <path
     style="fill:#535d6c;fill-opacity:1;stroke-width:0.0266205"
     d="M 0.01245659,14.789557 C 0.01470299,14.131941 0.01540218,10.539151 0.01401035,6.805579 0.01261852,3.072007 0.01276917,0.01556775 0.01434514,0.01349171 0.02599181,-0.00185056 15.953558,0.02093277 15.968794,0.0363135 c 0.01728,0.01743971 0.02967,10.6645555 0.01687,14.5003655 l -0.0048,1.453063 -3.919907,-7.98e-4 c -2.1559489,-4.38e-4 -5.7497504,-0.0015 -7.9862255,-0.0023 l -4.06631827,-0.0015 z M 8.4044549,13.752855 C 8.6027501,13.618118 9.017442,13.320565 9.3259925,13.091628 11.427691,11.532213 12.914815,9.9433432 13.706557,8.4113558 14.197536,7.4613333 14.406801,6.6963274 14.411225,5.8353104 14.416986,4.7142513 14.026906,3.8003365 13.210926,3.0231448 12.869146,2.6976107 12.285561,2.3537851 11.799922,2.1918344 10.506295,1.7604372 9.1361394,2.0104069 8.1904912,2.8503348 L 7.9961298,3.0229673 7.8379419,2.8751207 C 7.4043693,2.4698925 6.7885065,2.1668825 6.1437135,2.0415451 5.7722997,1.9693482 5.1583288,1.9712583 4.7666596,2.0458292 3.3664773,2.3124135 2.2554059,3.2371404 1.7967863,4.5176071 1.6504431,4.9261975 1.5924367,5.2878023 1.5908435,5.8014303 1.58831,6.6182027 1.7511748,7.2877602 2.1636373,8.1562564 2.8987898,9.7042206 4.311931,11.287573 6.3588829,12.856816 c 0.6834614,0.523957 1.6117835,1.168864 1.6575165,1.151478 0.015135,-0.0058 0.1897604,-0.120701 0.3880555,-0.255439 z"
     id="path863" />
  <path
     style="fill:#007fff;fill-opacity:1;stroke-width:0.0266205"
     d="M 0.01234948,14.829488 C 0.01453697,14.193834 0.01514591,10.601043 0.01370269,6.8455087 0.01225947,3.0899743 0.0124584,0.01555114 0.01414475,0.01345712 0.02644291,-0.00181402 15.9535,0.02087436 15.968667,0.03618462 c 0.01068,0.01077691 0.01936,1.73495068 0.01929,3.83149738 -6.7e-5,2.0965467 -1.7e-4,5.6816885 -2.29e-4,7.966982 l -1.07e-4,4.155079 -3.923305,-7.98e-4 c -2.1578186,-4.39e-4 -5.7531494,-0.0015 -7.9896245,-0.0023 l -4.06631827,-0.0015 z M 8.3353103,13.797105 C 11.784802,11.465824 13.89399,8.965698 14.333788,6.6868101 14.439309,6.1400377 14.43207,5.4139112 14.316203,4.9229515 14.144225,4.1942283 13.809319,3.6089895 13.262028,3.0808102 11.84746,1.7156398 9.5801838,1.6123586 8.1946774,2.8499774 L 7.999176,3.0246114 7.8351818,2.874332 C 7.3969372,2.4727371 6.8317512,2.1908566 6.1886057,2.0531194 5.8401484,1.9784931 5.209086,1.9680097 4.8526555,2.030926 3.986173,2.1838756 3.2498325,2.5596172 2.6645635,3.1474704 1.378262,4.4394516 1.2327775,6.3735306 2.2714895,8.373018 c 0.9317245,1.79354 2.7008234,3.579132 5.3324477,5.382161 0.2105841,0.14428 0.3878799,0.26235 0.3939911,0.262379 0.00611,2.9e-5 0.1579329,-0.09917 0.337382,-0.220453 z"
     id="path865" />
</svg>
